<?xml version="1.0" encoding="utf-8"?>
<!-- Generator: Adobe Illustrator 18.0.0, SVG Export Plug-In . SVG Version: 6.00 Build 0)  -->
<!DOCTYPE svg PUBLIC "-//W3C//DTD SVG 1.1//EN" "http://www.w3.org/Graphics/SVG/1.1/DTD/svg11.dtd" [
	<!ENTITY st0 "fill:#FFFFFF;">
]>
<svg version="1.1" id="レイヤー_1" xmlns="http://www.w3.org/2000/svg" xmlns:xlink="http://www.w3.org/1999/xlink" x="0px"
	 y="0px" viewBox="0 0 841.9 595.3" style="enable-background:new 0 0 841.9 595.3;" xml:space="preserve">
<g>
	<path style="&st0;" d="M261.9,297.6c0.1-0.3,0.1-0.4,0.1-0.5c0-0.6-0.3-0.9-0.9-1c-0.7-0.1-1.1,0.2-1.1,0.9c0,0.2,0,0.3-0.1,0.5
		c-1.6,0-3.2,0.3-4.8,0.7c0.1-1.4,0.1-2.8,0.3-4.2c3.8-0.3,6.7-0.9,8.6-1.6c1-0.4,1.2-1,1.2-1.5c0-0.4-0.2-0.8-0.5-1.1
		c-0.3-0.3-0.8-0.5-1.2-0.5c-0.4,0-0.8,0.1-1.1,0.4c-1.1,0.6-3.3,1.1-6.5,1.5c0.1-0.8,0.3-1.5,0.4-2.1c0.3-0.5,0.4-0.9,0.3-1.2
		c-0.1-0.6-0.5-1.2-1.1-1.7c-0.3-0.3-0.9-0.6-1.6-1c-0.2-0.1-0.4-0.2-0.6-0.2c-0.2,0-0.5,0.1-0.8,0.5c-0.3,0.4-0.2,0.8,0.1,1.1
		c0.2,0.2,0.4,0.5,0.5,1c0.1,0.4,0.2,0.8,0.1,1.1c-0.1,0.8-0.3,1.8-0.4,2.8c-0.8,0.1-1.5,0.1-2.1,0.1c-1.8,0-3.6-0.2-5.4-0.6
		c-0.4-0.1-0.8,0-1.1,0.4c-0.2,0.3-0.3,0.5-0.2,0.7c0,0.2,0.2,0.5,0.5,0.6c1.5,1,3.6,1.5,6.2,1.5c0.2,0,0.5,0,0.7,0
		c0.4,0,0.7,0,1.1,0c-0.1,1.5-0.1,3.1-0.1,4.8c-2.8,1.1-5.1,2.7-6.9,4.6c-1.9,2.1-2.9,4.2-2.9,6.4c0,1.3,0.4,2.3,1.3,3
		c0.8,0.8,1.9,1.1,3.3,1.1c1.9,0,3.8-0.7,5.9-1.9c0,0.1,0,0.2,0,0.2c0.1,0.6,0.4,1.3,1.6,1.3c0.4,0,0.8-0.1,1.1-0.4
		c0.3-0.3,0.5-0.7,0.5-1.1c0-0.3-0.1-0.6-0.2-0.8c-0.1-0.4-0.1-0.9-0.2-1.4c2.8-2.7,4.7-6.1,5.8-10c2.4,0.2,4.2,1,5.6,2.3
		c1.1,1.1,1.7,2.5,1.7,4.2c0,2.2-1.1,4.3-3.3,6.2c-1.9,1.6-4.3,2.8-6.9,3.5c-0.6,0.1-0.9,0.5-0.8,1.1c0.1,0.5,0.4,0.8,0.9,0.8
		c0.1,0,0.2,0,0.2,0c3.5-0.6,6.4-1.7,8.8-3.5c2.9-2.1,4.4-4.7,4.4-7.7c0-2.4-0.9-4.5-2.6-6.1C267.6,299,265,297.9,261.9,297.6z
		 M255.2,306.6c-0.2-1.8-0.2-3.8-0.2-6c1.4-0.4,2.8-0.6,4.2-0.7C258.2,302.4,256.9,304.6,255.2,306.6z M252.2,301.7L252.2,301.7
		c0,2.6,0.1,5,0.3,7.5c-1.7,1.3-3.3,2-4.9,2.1c-0.1,0-0.2,0-0.3,0c-1.6,0-1.8-0.7-1.8-1.2c0-1.7,0.7-3.3,1.9-4.8
		C248.6,303.9,250.2,302.7,252.2,301.7z"/>
	<path style="&st0;" d="M308,293.6c-2-0.8-4.1-1.3-6.2-1.6c-0.7-0.1-1.1,0.3-1.1,0.8c-0.1,0.6,0.2,1,0.8,1.1
		c1.6,0.3,3.2,0.9,4.6,1.7c-1.8,0.2-3.4,0.9-4.7,2.1c-1.2,1.1-1.9,2.4-1.9,3.9c0,1.1,0.2,3.5,0.7,7.1c-0.8-0.1-1.6-0.2-2.4-0.2
		c-2.3,0-4.1,0.5-5.2,1.5c-0.8,0.6-1.2,1.4-1.2,2.3c0,1.3,0.6,2.3,1.7,3.2c1.2,1,2.9,1.5,5.1,1.5l0.1,0c1.5,0,2.8-0.5,3.8-1.3
		c0.9-0.8,1.4-2,1.5-3.5c1.6,0.7,3.1,1.5,4.4,2.6c0.3,0.6,0.8,0.9,1.5,0.9c0.5,0,0.9-0.2,1.2-0.4c0.3-0.3,0.5-0.7,0.5-1.1
		c0-0.5-0.2-0.9-0.7-1.2c-2.1-1.6-4.6-2.8-7.3-3.6c-0.7-4.1-1-6.7-1-7.7c0-2.6,1.6-3.8,4.8-3.8h0.1c1.3,0,2.2,0.1,2.6,0.3
		c0.7,0.3,1.2,0.2,1.6-0.2c0.3-0.2,0.4-0.6,0.4-1c0-0.4-0.1-0.9-0.4-1.3C311,295.1,309.9,294.4,308,293.6z M294.6,311.9
		c0.6-0.6,1.7-0.9,3.1-0.9c0.2,0,0.5,0,0.8,0c0.6,0,1.3,0.1,2,0.3c0,0.3,0,0.6,0,0.9c0,0.8-0.2,1.3-0.8,1.7
		c-0.5,0.4-1.4,0.6-2.5,0.6h-0.1c-3.1,0-3.1-1.4-3.2-1.8C294.1,312.4,294.3,312.1,294.6,311.9z"/>
	<path style="&st0;" d="M297,294.9c1.1-0.3,1.4-1,1.4-1.5c0-0.4-0.2-0.8-0.5-1.1c-0.3-0.3-0.7-0.4-1.2-0.5c-0.3,0-0.6,0.1-0.9,0.3
		c-1.1,0.2-2.2,0.4-3.3,0.5c0.4-1.1,0.7-1.8,0.8-2.2c0.2-0.3,0.3-0.5,0.4-0.7c0.4-0.5,0.5-0.9,0.5-1.2c0-0.9-0.9-1.7-2.8-2.4
		c-0.2-0.1-0.3-0.1-0.5-0.1c-0.3,0-0.6,0.1-0.9,0.6c-0.2,0.4-0.1,0.7,0.2,1c0.4,0.4,0.4,1.1,0.2,1.9c-0.3,1-0.6,2.1-1,3.3
		c-2.6,0-5.1-0.2-7.6-0.4c-0.4-0.1-0.8,0.1-1,0.4c-0.2,0.3-0.2,0.5-0.2,0.7c0.1,0.2,0.2,0.4,0.5,0.6c1.4,0.8,3.8,1.3,7.4,1.3
		c-1.5,4.5-3.6,9.5-6,15.1c-0.3,0.3-0.4,0.6-0.4,1c0,0.4,0.2,0.8,0.5,1.1c0.3,0.3,0.7,0.4,1.1,0.5c0,0,0,0,0,0c0.7,0,1.2-0.3,1.5-1
		c2.4-5,4.5-10.6,6.3-16.7C293.5,295.4,295.3,295.2,297,294.9z"/>
	<path style="&st0;" d="M340,298.2c1.7-0.2,3.1-0.4,3.9-0.4c0.1,0,0.3,0,0.4,0c0,0,0,0,0,0c-0.5,0.1-0.8,0.5-0.8,1
		c0,0.2,0.1,0.5,0.4,0.8c0.3,0.2,0.6,0.2,0.9,0.1c1.2-0.4,2.2-0.5,3-0.5c0.2,0,0.3,0,0.5,0c0.1,0,0.1,0,0.1,0
		c0.3,0.4,0.7,0.5,1.2,0.5c1,0,1.5-0.5,1.5-1.4c0-0.3-0.1-0.6-0.4-0.9c-1.1-1.5-3.3-2.3-6.5-2.3c-1.3,0-2.9,0.4-4.9,1.1
		c-0.5,0.2-0.8,0.6-0.6,1.1C338.9,298,339.3,298.3,340,298.2z"/>
	<path style="&st0;" d="M336.8,295.3c0-0.9-0.5-1.4-1.5-1.4c-0.2,0-0.4,0.1-0.6,0.2c-0.8,0.1-1.7,0.2-2.6,0.4
		c0.5-2.1,0.8-3.3,0.8-3.9c0-1.9-1.2-3.1-3.5-3.6c-0.6-0.2-1.1,0.1-1.3,0.7c-0.1,0.5,0.1,0.9,0.6,1.1c0.5,0.2,0.7,0.6,0.8,1.1
		c0,0.1,0,0.5,0,1.6c0,0.8-0.3,2.1-0.6,3.7c-1.1,0.2-2,0.4-2.7,0.4c-1.7,0.1-2.9-0.1-3.6-0.4c-0.5-0.3-1.1-0.3-1.4,0.3
		c-0.3,0.5-0.2,0.9,0.2,1.3c1.3,1.1,2.7,1.6,4.2,1.6c0.7,0,1.5-0.1,2.5-0.2c-0.5,1.8-1.3,4.5-2.4,8.1c-1.4,4.7-2.2,7.6-2.4,8.8
		c-0.1,0.2-0.2,0.5-0.2,0.7c0,0.4,0.2,0.8,0.5,1.1c0.3,0.3,0.7,0.5,1.1,0.5c0.9,0,1.4-0.4,1.6-1.3c0.5-2.5,1.3-5.7,2.3-9.3
		c0.9-3.1,1.8-6.1,2.6-9.2c2-0.5,3.4-0.7,4.2-0.8C336.3,296.6,336.8,296.1,336.8,295.3z"/>
	<path style="&st0;" d="M349.4,312.8c-1.7,0.2-3.6,0.3-5.6,0.2c-3.6-0.1-5.4-1.6-5.7-4.4c-0.1-0.6-0.4-0.9-1-0.9l-0.1,0
		c-0.6,0.1-0.9,0.4-1,1c-0.1,4.6,2.5,7.1,7.6,7.3c0.7,0,1.4,0,2.1,0c1.5,0,3-0.1,4.3-0.2c0.5,0,0.9-0.2,1.2-0.5
		c0.3-0.3,0.5-0.7,0.5-1.1c0-0.4-0.2-0.8-0.5-1.1C350.8,312.6,350.1,312.5,349.4,312.8z"/>
	<path style="&st0;" d="M371.3,303.4c2-1.2,5.7-2.8,10.9-4.8c1.9-0.7,2.9-1.4,3.1-2.2c0.1-0.5,0-0.9-0.3-1.4
		c-0.6-0.9-1.9-1.5-3.8-1.8c-0.5-0.1-0.9,0.1-1.1,0.5c-0.1,0.3-0.2,0.5-0.1,0.8c0.1,0.2,0.3,0.4,0.6,0.5c0.7,0.3,0.8,0.5,0.8,0.5
		c0,0-0.1,0.1-0.5,0.3c-3.1,1.3-5.7,2.4-7.7,3.4c-0.3-0.7-0.8-1.8-1.4-3.3c-0.7-1.8-1.2-3.2-1.6-4c-0.7-1.4-1.5-2.4-2.4-3
		c-0.4-0.3-0.8-0.2-1.2,0c-0.3,0.2-0.4,0.4-0.5,0.6c-0.1,0.2,0,0.5,0.2,0.8c0.5,0.7,1.2,2.3,1.9,4.8c0.8,2.6,1.5,4.5,2.1,5.7
		c-4.7,2.8-7.2,5.8-7.2,8.8c0,4.4,4.3,6.6,12.9,6.6c3.7,0,6.4-0.3,8-0.8c0.8-0.3,1.2-0.8,1.2-1.5c0-0.5-0.2-0.9-0.5-1.2
		c-0.3-0.3-0.8-0.4-1.2-0.4c-0.4,0-0.7,0.1-1,0.3c-1.8,0.4-3.9,0.6-6.2,0.6c-3.6,0-6.1-0.2-7.4-0.6c-1.8-0.6-2.7-1.6-2.7-3.2
		C366.2,307.3,367.9,305.3,371.3,303.4z"/>
	<path style="&st0;" d="M408.2,297.1c0.3,0,0.5-0.1,0.7-0.3c1.6-1.6,3.1-3.4,4.4-5.3h14.7c0.5,0,0.9-0.2,1.3-0.5
		c0.4-0.3,0.6-0.7,0.6-1.2s-0.2-0.9-0.5-1.2c-0.4-0.3-0.8-0.5-1.3-0.5c-1.2,0-1.7,0.7-1.8,1.3h-11.7c0.2-0.4,0.4-0.7,0.5-1
		c0.7-0.3,1.1-0.9,1.1-1.6c0-0.5-0.2-0.9-0.6-1.2c-0.4-0.3-0.8-0.5-1.4-0.5c-0.8,0-1.4,0.4-1.7,1.1c-1.5,3.7-3.2,6.9-5,9.5
		c-0.1,0.2-0.2,0.4-0.2,0.5C407.3,296.8,407.6,297.1,408.2,297.1z"/>
	<path style="&st0;" d="M402.4,289.6c0,0.4,0.2,0.8,0.6,1.1c0.3,0.3,0.7,0.4,1.1,0.4c0.1,0,0.2,0,0.2,0c1.1-0.1,1.7-0.7,1.7-1.7
		c0-0.9-0.6-1.8-1.8-2.6c-1-0.7-2-1.2-3-1.4c-0.8-0.2-1.2,0.1-1.2,0.7c0,0.2,0.1,0.5,0.3,0.7C401.1,287.7,401.8,288.7,402.4,289.6z"
		/>
	<path style="&st0;" d="M430.4,300.6c-1.1,0-1.6,0.6-1.7,1.2h-2.1l0.5-6.3c0-0.5-0.1-0.8-0.3-1.1c-0.3-0.3-0.6-0.4-1.2-0.5l-0.1,0
		c-0.5,0-0.9,0.2-1.2,0.6h-10.3c-0.3-0.4-0.6-0.6-1.1-0.6c-1-0.1-1.6,0.4-1.7,1.3l-0.8,6.6h-3.1c-0.7,0-1.1,0.4-1.1,1s0.4,1,1.1,1
		h2.9l-1.1,8.6c0,0.4,0,0.8,0.3,1.1c0.2,0.3,0.6,0.5,1.1,0.5c1,0.1,1.6-0.3,1.7-1.3l0.1-0.5h9.9c-0.3,1-0.6,1.7-1,2.3l-3.2-0.3
		c-0.6-0.1-0.9,0.2-1,0.7c0,0.3,0,0.5,0.1,0.6c0.1,0.2,0.4,0.3,0.7,0.3l0.8,0.1c0,0.1-0.1,0.3-0.1,0.4c0,0.5,0.2,1,0.6,1.3
		c0.3,0.3,0.8,0.5,1.2,0.5c0.1,0,0.1,0,0.2,0c2.3-0.2,3.9-2.2,4.8-5.9h4.2c0.5,0,0.9-0.2,1.2-0.5c0.3-0.3,0.5-0.7,0.5-1.1
		c0-0.4-0.2-0.8-0.5-1.1c-0.3-0.3-0.7-0.5-1.2-0.5c-1.1,0-1.6,0.6-1.7,1.2h-2.1c0.3-1.6,0.5-3.7,0.7-6.4h3.9c1.2,0,1.8-0.6,1.8-1.6
		c0-0.4-0.2-0.8-0.5-1.1C431.2,300.8,430.8,300.6,430.4,300.6z M413.4,301.8l0.7-5.2h3.2l-0.6,5.2H413.4z M412.4,310.2l0.8-6.4h3.3
		l-0.7,6.4H412.4z M423.2,303.9c-0.2,2.7-0.5,4.8-0.7,6.4h-3.6l0.7-6.4H423.2z M423.8,296.6c-0.1,1.9-0.3,3.7-0.4,5.2h-3.6l0.5-5.2
		H423.8z"/>
	<path style="&st0;" d="M406.4,297.7c0-0.5-0.3-0.8-0.9-0.8c-0.4,0-0.7,0.2-0.9,0.6c-1.7,3.6-3.3,6.8-4.9,9.6
		c-0.4-0.3-0.7-0.5-1-0.5c-0.6,0-0.9,0.3-0.9,0.9c0,0.2,0.1,0.4,0.2,0.6c1.2,1.6,1.9,3.8,1.9,6.8c-0.2,0.3-0.3,0.7-0.3,1.1
		c0.1,0.5,0.3,0.9,0.7,1.2c0.3,0.3,0.8,0.4,1.2,0.4c0.1,0,0.2,0,0.2,0c0.5,0,1-0.2,1.3-0.6c0.4-0.4,0.5-0.8,0.5-1.3
		c-0.1-2.4-0.7-4.5-1.9-6.3C405.9,299.9,406.4,298.2,406.4,297.7z"/>
	<path style="&st0;" d="M400.9,299.6c0.1,0,0.2,0,0.4,0c1-0.1,1.5-0.7,1.5-1.6c0-0.9-0.6-1.7-1.8-2.4c-0.9-0.6-1.9-1-2.9-1.2
		c-0.7-0.2-1.2,0.2-1.2,0.8c0,0.2,0.1,0.5,0.3,0.6c0.9,1,1.6,1.9,2.1,2.7C399.5,299.2,400.1,299.6,400.9,299.6z"/>
	<path style="&st0;" d="M468.6,297c-0.7-0.5-1.4-0.9-2.2-1.1c-0.6-0.2-1.1,0.1-1.3,0.6c-0.1,0.3-0.1,0.5,0,0.7
		c0.1,0.2,0.3,0.4,0.7,0.5c0.9,0.3,0.9,0.7,0.9,0.8c0,0.2-0.6,1-7,3.3c-1.2,0.4-2.1,0.8-2.7,1c-0.6-3.1-2.5-4.7-5.6-4.7
		c-0.3,0-0.6,0-1,0.1c0.8-1.3,1.5-2.8,2.1-4.4c1.9-0.1,3.4-0.4,4.5-0.6c1.5-0.4,2.3-1,2.3-1.9c0-0.4-0.2-0.8-0.5-1.1
		c-0.3-0.3-0.7-0.5-1.1-0.5c-0.6,0-1,0.2-1.4,0.7c-0.6,0.2-1.5,0.4-2.8,0.6c0.8-2.7,0.9-3.3,0.9-3.6c0-1.1-1-1.9-3-2.4
		c-0.3-0.1-0.6,0-0.9,0.2c-0.3,0.2-0.4,0.5-0.4,0.8c0,0.3,0.1,0.6,0.4,0.8c0.5,0.4,0.8,0.8,0.8,1.2c0,0.3-0.1,1-0.8,3.2h-1.4
		c-1.5,0-3.5-0.1-6-0.3l-0.1,0c-0.5,0-0.8,0.2-1,0.6c-0.1,0.3-0.1,0.5,0,0.7c0.1,0.2,0.3,0.4,0.7,0.5c1.9,0.7,3.7,1,5.4,1.1
		c0.4,0,0.9,0,1.5,0c-1.2,2.9-3,5.4-5.3,7.4c-0.7,0.5-1.4,1.1-2.2,1.7c-0.4,0.3-0.6,0.7-0.6,1.1c0,0.9,0.5,1.4,1.5,1.4
		c0.5,0,0.9-0.2,1.2-0.6c1.1-0.8,2.1-1.7,3-2.6c2.5-1.9,3.7-2.3,4.2-2.3c1,0,1.6,0.3,2,0.9c0.4,0.6,0.6,1.6,0.7,3c-6,2.6-9,5.2-9,8
		c0,3.4,3.9,5.2,11.6,5.2c2.7,0,5.3-0.3,7.8-0.9c1-0.3,1.2-0.9,1.2-1.5c0-0.4-0.2-0.8-0.5-1.1c-0.5-0.5-1.3-0.6-2-0.2
		c-2.2,0.5-4.4,0.7-6.6,0.7c-5.7,0-8.7-0.8-8.7-2.4c0-1.7,2-3.5,6.1-5.2c0,1.6,0,2.6,0.1,3.1c0.1,0.9,0.6,1.3,1.5,1.3
		c1,0,1.6-0.5,1.6-1.4c0-0.1,0-0.2,0-0.3c0-0.4,0-1.5,0-3.2v-0.6c0.9-0.3,2.1-0.7,3.7-1.3c2.8-0.9,4.5-1.5,5.2-1.8
		c2.7-1.2,4-2.3,4-3.4C470.1,298.4,469.6,297.7,468.6,297z"/>
	<path style="&st0;" d="M508,294.8c-2-1.6-4.4-2.4-7.2-2.4c-3.4,0-8.6,1.5-15.4,4.3c-1.5,0.6-2,0.8-2.1,0.8c-1.1,0.3-2,0.3-2.5-0.1
		c-0.2-0.1-0.4-0.2-0.6-0.2c-0.2,0-0.5,0.1-0.8,0.5c-0.4,0.5-0.3,0.9,0.2,1.3c1.3,0.9,1.7,1.1,1.8,1.2c0.8,0.4,1.6,0.6,2.3,0.5
		c0.5-0.1,1.3-0.3,2.2-0.7c0.6-0.2,1.6-0.7,3-1.3c5.6-2.6,9.7-3.8,12.1-3.8c2.1,0,3.8,0.7,5.1,2.2c1.2,1.4,1.8,2.9,1.8,4.7
		c0,3-1.7,5.4-4.9,7.3c-3.3,1.8-8.1,2.9-14.1,3.2c-0.3,0-0.6,0.1-0.8,0.3c-0.2,0.2-0.2,0.4-0.2,0.7c0,0.6,0.4,1,1,1c0,0,0,0,0,0
		c7.2-0.1,12.8-1.2,16.6-3.3c3.9-2.1,5.9-5.2,5.9-9.1C511.4,299,510.3,296.6,508,294.8z"/>
	<path style="&st0;" d="M548.4,293.6c-2-0.8-4.1-1.3-6.2-1.6c-0.7-0.1-1.1,0.3-1.1,0.8c-0.1,0.6,0.2,1,0.8,1.1
		c1.6,0.3,3.2,0.9,4.6,1.7c-1.8,0.2-3.4,0.9-4.7,2.1c-1.2,1.1-1.8,2.4-1.8,3.9c0,1.1,0.2,3.5,0.7,7.1c-0.8-0.1-1.6-0.2-2.4-0.2
		c-2.3,0-4.1,0.5-5.2,1.5c-0.8,0.6-1.2,1.4-1.2,2.3c0,1.3,0.6,2.3,1.7,3.2c1.2,1,2.9,1.5,5.1,1.5l0.1,0c1.5,0,2.8-0.5,3.8-1.3
		c0.9-0.8,1.4-2,1.5-3.5c1.6,0.7,3.1,1.5,4.4,2.6c0.3,0.6,0.8,0.9,1.5,0.9c0.5,0,0.9-0.2,1.2-0.4c0.3-0.3,0.5-0.7,0.5-1.1
		c0-0.5-0.2-0.9-0.7-1.2c-2.1-1.6-4.6-2.8-7.3-3.6c-0.7-4.1-1-6.7-1-7.7c0-2.6,1.6-3.8,4.8-3.8h0.1c1.3,0,2.2,0.1,2.6,0.3
		c0.7,0.3,1.2,0.2,1.6-0.2c0.3-0.2,0.4-0.6,0.4-1c0-0.4-0.1-0.9-0.4-1.3C551.4,295.1,550.3,294.4,548.4,293.6z M535,311.9
		c0.6-0.6,1.7-0.9,3.1-0.9c0.2,0,0.5,0,0.8,0c0.6,0,1.3,0.1,2,0.3c0,0.3,0,0.6,0,0.9c0,0.8-0.2,1.3-0.8,1.7
		c-0.5,0.4-1.4,0.6-2.5,0.6h-0.1c-3.1,0-3.1-1.4-3.2-1.8C534.5,312.4,534.7,312.1,535,311.9z"/>
	<path style="&st0;" d="M537.4,294.9c1.1-0.3,1.4-1,1.4-1.5c0-0.4-0.2-0.8-0.5-1.1c-0.3-0.3-0.7-0.4-1.2-0.5c-0.3,0-0.6,0.1-0.9,0.3
		c-1.1,0.2-2.2,0.4-3.3,0.5c0.4-1.1,0.7-1.8,0.8-2.2c0.2-0.4,0.3-0.6,0.4-0.7c0.4-0.5,0.5-0.9,0.5-1.2c0-0.9-0.9-1.7-2.8-2.4
		c-0.2-0.1-0.3-0.1-0.5-0.1c-0.3,0-0.6,0.1-0.9,0.6c-0.2,0.4-0.1,0.7,0.2,1c0.4,0.4,0.4,1.1,0.2,1.9c-0.3,1-0.6,2.1-1,3.3
		c-2.6,0-5.1-0.2-7.6-0.4c-0.4-0.1-0.8,0.1-1,0.4c-0.2,0.3-0.2,0.5-0.2,0.7c0.1,0.2,0.2,0.4,0.5,0.6c1.4,0.8,3.8,1.3,7.4,1.3
		c-1.5,4.5-3.6,9.5-6,15.1c-0.3,0.3-0.4,0.6-0.4,1c0,0.4,0.2,0.8,0.5,1.1c0.3,0.3,0.7,0.4,1.1,0.5c0,0,0,0,0,0c0.7,0,1.2-0.3,1.5-1
		c2.4-5,4.5-10.6,6.3-16.7C533.9,295.4,535.7,295.2,537.4,294.9z"/>
	<path style="&st0;" d="M582.2,291.7c-0.5-0.2-0.9,0-1.2,0.5c-0.2,0.4-0.1,0.8,0.3,1c1.3,0.8,2.2,1.7,2.8,2.6c0,0.4,0.1,0.7,0.3,1
		c0.3,0.3,0.6,0.4,1.1,0.4c0,0,0.1,0,0.1,0c0.4,0,0.7-0.1,1-0.4c0.3-0.3,0.5-0.6,0.5-1c0-0.2,0-0.4-0.1-0.6
		C586.4,293.7,584.7,292.5,582.2,291.7z"/>
	<path style="&st0;" d="M578.2,294.6c-0.1-0.1-0.3-0.1-0.4-0.1c-0.2,0-0.6,0.1-0.8,0.5c-0.2,0.4-0.1,0.8,0.3,1
		c1.2,0.8,2,1.6,2.6,2.5c0,0.4,0.1,0.7,0.3,0.9c0.2,0.3,0.6,0.4,1.1,0.4c0.1,0,0.1,0,0.2,0c0.9,0,1.4-0.5,1.4-1.4
		c0-0.3-0.1-0.6-0.2-0.8C581.7,296.4,580.2,295.3,578.2,294.6z"/>
	<path style="&st0;" d="M572.8,308.1c-1.5-1.3-3.3-2.6-5.3-4c-2.2-1.6-2.3-2-2.3-2.1c0-0.1,0.3-0.8,3.9-4l3.5-3.1
		c1.6-1.4,2.6-2.4,3.1-3c0.9-1.1,1.4-2.2,1.4-3.2c0-1.5-0.8-2.6-2.5-3.3c-0.4-0.1-0.7-0.1-1,0.1c-0.3,0.2-0.4,0.4-0.4,0.7
		c0,0.2,0.1,0.5,0.3,0.7c0.2,0.2,0.3,0.6,0.3,1.2c0,0.8-0.4,1.7-1.3,2.8c-0.6,0.7-1.8,1.9-3.5,3.4l-1.4,1.3c-2,1.9-3.4,3.2-4.1,3.9
		c-1,1.1-1.4,1.9-1.4,2.6c0,0.7,0.3,1.3,0.7,1.8c0.3,0.3,1,0.9,2.1,1.8c1.6,1.2,3.1,2.3,4.4,3.4c3.7,3,5.7,5.5,6.1,7.3
		c0,0.5,0.1,0.8,0.5,1.2c0.3,0.3,0.7,0.5,1.2,0.5l0.1,0c0.5,0,0.9-0.2,1.3-0.5c0.3-0.4,0.5-0.8,0.4-1.2
		C578.6,314,576.7,311.3,572.8,308.1z"/>
	<path style="&st0;" d="M599.7,307.5c-1.1-1.1-2.5-1.6-4.1-1.6s-3,0.5-4.1,1.6c-1.1,1.1-1.7,2.3-1.7,3.8s0.6,2.8,1.7,3.8
		c1.1,1,2.5,1.6,4.1,1.6c1.6,0,3-0.5,4.1-1.6c1.1-1.1,1.7-2.3,1.7-3.8C601.4,309.9,600.8,308.6,599.7,307.5z M595.6,314.4
		c-0.9,0-1.7-0.3-2.3-0.9c-0.6-0.6-1-1.3-1-2.1c0-0.8,0.3-1.5,1-2.1c0.7-0.6,1.4-0.9,2.3-0.9c0.9,0,1.7,0.3,2.3,0.9
		c0.6,0.6,1,1.3,1,2.1c0,0.8-0.3,1.5-1,2.1C597.2,314.1,596.5,314.4,595.6,314.4z"/>
</g>
</svg>
